<?xml version="1.0" encoding="UTF-8"?>
<svg version="1.1" xmlns="http://www.w3.org/2000/svg" width="311" height="137">
<path d="M0 0 C102.63 0 205.26 0 311 0 C311 45.21 311 90.42 311 137 C208.37 137 105.74 137 0 137 C0 91.79 0 46.58 0 0 Z " fill="#FBFCFC" transform="translate(0,0)"/>
<path d="M0 0 C1.12535156 0.41894531 2.25070313 0.83789062 3.41015625 1.26953125 C13.63655966 5.34365522 22.75178186 11.08606604 32 17 C31.34 17.33 30.68 17.66 30 18 C28.09884184 17.11036919 26.20303759 16.20716686 24.33886719 15.24243164 C-23.20445836 -9.35577736 -72.28576921 0.31486338 -121.01843262 14.59130859 C-122.91516475 15.14683978 -124.81303023 15.69849692 -126.7109375 16.25 C-127.7839209 16.56453125 -128.8569043 16.8790625 -129.96240234 17.203125 C-132.96354735 17.99043711 -135.93308981 18.54045174 -139 19 C-130.69612876 20.907613 -122.34883933 21.83875455 -113.875 22.625 C-113.1803363 22.6907019 -112.48567261 22.75640381 -111.7699585 22.82409668 C-90.83400635 26.04636612 -90.83400635 26.04636612 -71 23 C-72.13499394 19.70851757 -72.99283376 19.0040131 -76.125 17.25 C-77.07375 16.8375 -78.0225 16.425 -79 16 C-75.42021604 14.86702476 -72.1741211 14.94131794 -68.4375 15.05078125 C-67.46109558 15.07792709 -67.46109558 15.07792709 -66.46496582 15.10562134 C-64.30972337 15.16805862 -62.15491539 15.23968683 -60 15.3125 C-59.25435791 15.33611603 -58.50871582 15.35973206 -57.74047852 15.38406372 C-40.80943886 15.92275821 -23.89960406 16.80757166 -6.99420166 17.87432861 C-5.12693899 17.99200051 -3.25951943 18.10717535 -1.39208984 18.22216797 C15.28045515 19.27468466 31.78081797 21.22623095 48.32373047 23.50317383 C50.82080981 23.84063939 53.31998599 24.16286856 55.82080078 24.47143555 C63.85316308 25.47509619 71.64447988 26.86275312 79.5 28.8125 C80.57588379 29.07675781 81.65176758 29.34101562 82.76025391 29.61328125 C115.8302932 37.88700631 115.8302932 37.88700631 125 51 C125 51.33 125 51.66 125 52 C102.89 52 80.78 52 58 52 C57.01 49.36 56.02 46.72 55 44 C52.00270009 40.34267291 48.10056853 38.74582596 43.5 38 C37.64912781 37.66168426 33.67453252 39.62316215 29.1875 43.3125 C26.51721513 46.26961331 26.51721513 46.26961331 25 52 C-11.96 52 -48.92 52 -87 52 C-87.99 46.555 -87.99 46.555 -89 41 C-92.23153578 34.87122524 -96.47131574 31.23349725 -103 29 C-110.06529121 28.09175629 -116.18914413 28.69468406 -122 33 C-126.44329993 37.23927086 -129.08515634 41.63177189 -129.625 47.75 C-129.69976562 48.54921875 -129.77453125 49.3484375 -129.8515625 50.171875 C-129.90054688 50.77515625 -129.94953125 51.3784375 -130 52 C-134.94790177 52.0493651 -139.89566083 52.08570269 -144.84375 52.10986328 C-146.52769466 52.11993317 -148.21162179 52.13358988 -149.89550781 52.15087891 C-152.31319501 52.17508426 -154.73065143 52.18647296 -157.1484375 52.1953125 C-157.9036972 52.20563507 -158.65895691 52.21595764 -159.43710327 52.22659302 C-161.2929398 52.22699318 -163.1481928 52.12222716 -165 52 C-167 50 -167 50 -167.265625 47.96875 C-167.26046875 47.1540625 -167.2553125 46.339375 -167.25 45.5 C-167.25515625 44.7059375 -167.2603125 43.911875 -167.265625 43.09375 C-167.03391625 40.39502462 -166.579327 37.98664458 -165.9921875 35.3515625 C-164.83650808 29.81874729 -164.77215025 24.50800169 -164.875 18.875 C-164.88853516 17.44027344 -164.88853516 17.44027344 -164.90234375 15.9765625 C-164.92560173 13.65076475 -164.95827787 11.32552706 -165 9 C-164.13503906 9.32097656 -163.27007812 9.64195313 -162.37890625 9.97265625 C-144.70778372 15.34549466 -123.42975881 5.8644019 -106.61938477 0.95874023 C-98.73776496 -1.30787997 -90.8430177 -3.27371697 -82.8125 -4.9375 C-81.37136841 -5.23624023 -81.37136841 -5.23624023 -79.90112305 -5.54101562 C-53.37405645 -10.82246507 -25.31865395 -9.67821493 0 0 Z " fill="#056197" transform="translate(179,22)"/>
<path d="M0 0 C0.98919937 0.00614822 0.98919937 0.00614822 1.99838257 0.01242065 C27.04800768 0.19463418 49.97939671 5.81658069 72.27148438 17.35400391 C74.48399556 18.46086269 76.74464021 19.38764665 79.0625 20.25 C78.0725 21.735 78.0725 21.735 77.0625 23.25 C76.37663818 23.1998877 75.69077637 23.14977539 74.98413086 23.09814453 C57.22161624 21.80456531 39.45575464 20.60416164 21.68139648 19.4855957 C19.27925375 19.32921253 16.87768319 19.16376257 14.47680664 18.98901367 C4.36238784 18.26147937 -5.73927969 17.93750015 -15.875 17.6875 C-17.54102285 17.64415711 -19.20703856 17.60053878 -20.87304688 17.55664062 C-24.89445634 17.45126492 -28.91594278 17.34957044 -32.9375 17.25 C-31.9475 17.8275 -30.9575 18.405 -29.9375 19 C-28.9475 19.7425 -27.9575 20.485 -26.9375 21.25 C-26.9375 22.57 -26.9375 23.89 -26.9375 25.25 C-37.77774116 30.67012058 -57.61807409 26.0230081 -69.625 24.875 C-70.29251282 24.81187622 -70.96002563 24.74875244 -71.64776611 24.68371582 C-80.46320727 23.83686492 -89.19997114 22.69160436 -97.9375 21.25 C-94.52001608 18.97167739 -92.01502779 18.48335759 -88 17.625 C-79.965744 15.83872064 -72.08776467 13.61445064 -64.1875 11.3125 C-55.68028322 8.84980968 -47.17332483 6.45056556 -38.5625 4.375 C-37.78680664 4.18429932 -37.01111328 3.99359863 -36.21191406 3.79711914 C-24.19255635 0.97617129 -12.33085009 -0.09418905 0 0 Z " fill="#F7FCFC" transform="translate(134.9375,20.75)"/>
<path d="M0 0 C4.72750048 0.03381617 7.81915521 0.81915521 11.25 4.25 C10.89367518 7.39753589 10.51405155 10.40983598 9.5625 13.4375 C9.13557377 15.91367213 10.11608767 17.04887606 11.25 19.25 C11.375 22 11.375 22 11.25 24.25 C9.93 24.25 8.61 24.25 7.25 24.25 C7.00765625 23.68410156 6.7653125 23.11820313 6.515625 22.53515625 C6.18046875 21.80167969 5.8453125 21.06820312 5.5 20.3125 C5.17515625 19.58160156 4.8503125 18.85070312 4.515625 18.09765625 C3.22377317 15.77359666 3.22377317 15.77359666 -0.75 15.25 C-0.75 18.22 -0.75 21.19 -0.75 24.25 C-2.4 24.25 -4.05 24.25 -5.75 24.25 C-5.77887236 20.43751574 -5.79675492 16.6250593 -5.8125 12.8125 C-5.82087891 11.72388672 -5.82925781 10.63527344 -5.83789062 9.51367188 C-5.84111328 8.47919922 -5.84433594 7.44472656 -5.84765625 6.37890625 C-5.85289307 5.42056885 -5.85812988 4.46223145 -5.86352539 3.47485352 C-5.65622065 -0.58787362 -3.58530423 0.06364445 0 0 Z " fill="#191919" transform="translate(178.75,97.75)"/>
<path d="M0 0 C4.72750048 0.03381617 7.81915521 0.81915521 11.25 4.25 C10.89367518 7.39753589 10.51405155 10.40983598 9.5625 13.4375 C9.13557377 15.91367213 10.11608767 17.04887606 11.25 19.25 C11.375 22 11.375 22 11.25 24.25 C9.93 24.25 8.61 24.25 7.25 24.25 C7.00765625 23.68410156 6.7653125 23.11820313 6.515625 22.53515625 C6.18046875 21.80167969 5.8453125 21.06820312 5.5 20.3125 C5.17515625 19.58160156 4.8503125 18.85070312 4.515625 18.09765625 C3.22377317 15.77359666 3.22377317 15.77359666 -0.75 15.25 C-0.75 18.22 -0.75 21.19 -0.75 24.25 C-2.4 24.25 -4.05 24.25 -5.75 24.25 C-5.77887236 20.43751574 -5.79675492 16.6250593 -5.8125 12.8125 C-5.82087891 11.72388672 -5.82925781 10.63527344 -5.83789062 9.51367188 C-5.84111328 8.47919922 -5.84433594 7.44472656 -5.84765625 6.37890625 C-5.85289307 5.42056885 -5.85812988 4.46223145 -5.86352539 3.47485352 C-5.65622065 -0.58787362 -3.58530423 0.06364445 0 0 Z " fill="#191919" transform="translate(54.75,97.75)"/>
<path d="M0 0 C2.6875 0.375 2.6875 0.375 4.6875 2.25 C7.39049061 6.47342282 9.51729468 10.85373891 11.6875 15.375 C12.0175 10.425 12.3475 5.475 12.6875 0.375 C14.0075 0.375 15.3275 0.375 16.6875 0.375 C16.6875 8.295 16.6875 16.215 16.6875 24.375 C14.7075 24.375 12.7275 24.375 10.6875 24.375 C9.51595707 22.08570947 8.35011926 19.79381638 7.1875 17.5 C6.85363281 16.84902344 6.51976562 16.19804688 6.17578125 15.52734375 C3.6875 10.6015625 3.6875 10.6015625 3.6875 8.375 C3.0275 8.375 2.3675 8.375 1.6875 8.375 C1.6875 13.655 1.6875 18.935 1.6875 24.375 C0.0375 24.375 -1.6125 24.375 -3.3125 24.375 C-3.34137236 20.56251574 -3.35925492 16.7500593 -3.375 12.9375 C-3.38337891 11.84888672 -3.39175781 10.76027344 -3.40039062 9.63867188 C-3.40361328 8.60419922 -3.40683594 7.56972656 -3.41015625 6.50390625 C-3.41539307 5.54556885 -3.42062988 4.58723145 -3.42602539 3.59985352 C-3.26963093 0.53485843 -3.02081105 0.48986125 0 0 Z " fill="#1B1B1B" transform="translate(215.3125,97.625)"/>
<path d="M0 0 C12 0 12 0 14.8125 2.125 C16.26633975 5.64482255 16.10064358 7.38359965 15 11 C14.01 12.485 14.01 12.485 13 14 C13.474375 14.721875 13.94875 15.44375 14.4375 16.1875 C15.94152903 18.89475226 16.56599182 20.96194275 17 24 C15.35 24 13.7 24 12 24 C11.01 21.03 10.02 18.06 9 15 C7.68 15 6.36 15 5 15 C5 17.97 5 20.94 5 24 C3.35 24 1.7 24 0 24 C0 16.08 0 8.16 0 0 Z " fill="#161616" transform="translate(144,98)"/>
<path d="M0 0 C2.5625 0.4375 2.5625 0.4375 4.0546875 2.45703125 C5.88230312 6.06964968 7.08404491 9.69476981 8.25 13.5625 C8.47494141 14.27792969 8.69988281 14.99335937 8.93164062 15.73046875 C9.8547183 18.73257546 10.5625 21.27901102 10.5625 24.4375 C8.9125 24.4375 7.2625 24.4375 5.5625 24.4375 C5.0675 21.9625 5.0675 21.9625 4.5625 19.4375 C1.2625 19.4375 -2.0375 19.4375 -5.4375 19.4375 C-5.7675 21.0875 -6.0975 22.7375 -6.4375 24.4375 C-8.0875 24.4375 -9.7375 24.4375 -11.4375 24.4375 C-9.82445461 18.91404154 -8.14098701 13.41404399 -6.375 7.9375 C-6.05402344 6.9371875 -5.73304688 5.936875 -5.40234375 4.90625 C-4.16869734 1.74971342 -3.39121301 0.60867926 0 0 Z " fill="#1B1B1B" transform="translate(261.4375,97.5625)"/>
<path d="M0 0 C1.4540625 0.0309375 1.4540625 0.0309375 2.9375 0.0625 C5.29823046 4.52781129 7.0596141 8.96871558 8.625 13.75 C8.84994141 14.41322266 9.07488281 15.07644531 9.30664062 15.75976562 C10.26469549 18.65140235 10.9375 20.99528567 10.9375 24.0625 C9.2875 24.0625 7.6375 24.0625 5.9375 24.0625 C5.6075 22.4125 5.2775 20.7625 4.9375 19.0625 C1.6375 19.0625 -1.6625 19.0625 -5.0625 19.0625 C-5.3925 20.7125 -5.7225 22.3625 -6.0625 24.0625 C-7.3825 24.0625 -8.7025 24.0625 -10.0625 24.0625 C-9.44350727 18.70258572 -8.21553188 13.81662177 -6.5625 8.6875 C-6.33691406 7.96433594 -6.11132812 7.24117188 -5.87890625 6.49609375 C-3.84404356 0.07844987 -3.84404356 0.07844987 0 0 Z " fill="#1B1B1B" transform="translate(130.0625,97.9375)"/>
<path d="M0 0 C1.4540625 0.0309375 1.4540625 0.0309375 2.9375 0.0625 C10.9375 16.53058511 10.9375 16.53058511 10.9375 24.0625 C9.2875 24.0625 7.6375 24.0625 5.9375 24.0625 C5.4425 21.5875 5.4425 21.5875 4.9375 19.0625 C1.6375 19.0625 -1.6625 19.0625 -5.0625 19.0625 C-5.3925 20.7125 -5.7225 22.3625 -6.0625 24.0625 C-7.7125 24.0625 -9.3625 24.0625 -11.0625 24.0625 C-4.83568255 0.0986874 -4.83568255 0.0986874 0 0 Z " fill="#1A1A1A" transform="translate(79.0625,97.9375)"/>
<path d="M0 0 C5.28264824 0.05488466 5.28264824 0.05488466 8.375 2.5 C9.90501965 5.85147162 10.3066438 7.73753019 9.6875 11.375 C8.125 13.75 8.125 13.75 5.6875 15.375 C1.9375 15.625 1.9375 15.625 -1.3125 15.375 C-1.3125 18.345 -1.3125 21.315 -1.3125 24.375 C-2.9625 24.375 -4.6125 24.375 -6.3125 24.375 C-6.34137236 20.56251574 -6.35925492 16.7500593 -6.375 12.9375 C-6.38337891 11.84888672 -6.39175781 10.76027344 -6.40039062 9.63867188 C-6.40361328 8.60419922 -6.40683594 7.56972656 -6.41015625 6.50390625 C-6.41539307 5.54556885 -6.42062988 4.58723145 -6.42602539 3.59985352 C-6.21010812 -0.63166069 -3.70610994 0.12762763 0 0 Z " fill="#181818" transform="translate(17.3125,97.625)"/>
<path d="M0 0 C4.62 0 9.24 0 14 0 C14 1.32 14 2.64 14 4 C11.03 4 8.06 4 5 4 C5 5.98 5 7.96 5 10 C7.64 10 10.28 10 13 10 C13 11.32 13 12.64 13 14 C10.36 14 7.72 14 5 14 C5 15.98 5 17.96 5 20 C7.97 20 10.94 20 14 20 C14 21.32 14 22.64 14 24 C9.38 24 4.76 24 0 24 C0 16.08 0 8.16 0 0 Z " fill="#191919" transform="translate(194,98)"/>
<path d="M0 0 C4.62 0 9.24 0 14 0 C14 1.32 14 2.64 14 4 C11.03 4 8.06 4 5 4 C5 5.98 5 7.96 5 10 C7.64 10 10.28 10 13 10 C13 11.32 13 12.64 13 14 C10.36 14 7.72 14 5 14 C5 15.98 5 17.96 5 20 C7.97 20 10.94 20 14 20 C14 21.32 14 22.64 14 24 C9.38 24 4.76 24 0 24 C0 16.08 0 8.16 0 0 Z " fill="#171717" transform="translate(31,98)"/>
<path d="M0 0 C1.31677734 0.00580078 1.31677734 0.00580078 2.66015625 0.01171875 C4.9375 0.3125 4.9375 0.3125 6.9375 2.3125 C6.9375 3.6325 6.9375 4.9525 6.9375 6.3125 C6.380625 5.9825 5.82375 5.6525 5.25 5.3125 C2.63465478 4.1815399 0.7568354 4.15587026 -2.0625 4.3125 C-3.77004834 7.28715763 -4.33567355 9.45110832 -4.3125 12.875 C-4.31765625 13.63941406 -4.3228125 14.40382813 -4.328125 15.19140625 C-4.1854561 17.61232762 -4.1854561 17.61232762 -2.0625 20.3125 C0.14475073 20.67612818 0.14475073 20.67612818 2.5625 20.5 C3.37976563 20.47292969 4.19703125 20.44585937 5.0390625 20.41796875 C5.97878906 20.36576172 5.97878906 20.36576172 6.9375 20.3125 C6.5625 22.25 6.5625 22.25 5.9375 24.3125 C2.87320224 25.84464888 0.3209358 25.54188548 -3.0625 25.3125 C-7.21427657 23.51968739 -9.33408115 21.49709301 -11.0625 17.3125 C-11.63989756 12.9622444 -11.58485063 9.45669662 -9.75 5.4375 C-6.5935831 1.46275279 -5.29930598 -0.10145947 0 0 Z " fill="#1C1C1C" transform="translate(111.0625,97.6875)"/>
<path d="M0 0 C5.28 0.33 10.56 0.66 16 1 C16 1.33 16 1.66 16 2 C14.02 2 12.04 2 10 2 C10.495 2.99 10.495 2.99 11 4 C11.039992 5.99960012 11.04346799 8.00047242 11 10 C7.48575476 11.05955248 4.14344126 11.19998141 0.484375 11.31640625 C-0.76601562 11.35830078 -2.01640625 11.40019531 -3.3046875 11.44335938 C-5.25761719 11.50233398 -5.25761719 11.50233398 -7.25 11.5625 C-9.22613281 11.62727539 -9.22613281 11.62727539 -11.2421875 11.69335938 C-14.49468788 11.79941917 -17.74726392 11.90148024 -21 12 C-18.69 12.33 -16.38 12.66 -14 13 C-14 13.99 -14 14.98 -14 16 C-12.27773504 19.24849977 -12.27773504 19.24849977 -9 20 C-8.67 21.98 -8.34 23.96 -8 26 C-8.66 26 -9.32 26 -10 26 C-10.598125 25.0925 -11.19625 24.185 -11.8125 23.25 C-15.04022887 18.45451711 -18.51700416 15.76129755 -24 14 C-27.58430945 13.75917126 -27.58430945 13.75917126 -31.3125 13.875 C-32.56675781 13.89304687 -33.82101563 13.91109375 -35.11328125 13.9296875 C-36.54220703 13.96449219 -36.54220703 13.96449219 -38 14 C-35.8614515 11.8614515 -34.86724686 11.57344937 -32 11 C-33.32 10.34 -34.64 9.68 -36 9 C-34.73816895 9.00523682 -33.47633789 9.01047363 -32.17626953 9.01586914 C-27.50602932 9.03393458 -22.83579221 9.04543769 -18.16552734 9.05493164 C-16.14208457 9.05996831 -14.11864544 9.06679789 -12.09521484 9.07543945 C-9.19107157 9.08753412 -6.28697631 9.09323488 -3.3828125 9.09765625 C-2.02024826 9.10539818 -2.02024826 9.10539818 -0.63015747 9.11329651 C0.63092331 9.11340981 0.63092331 9.11340981 1.91748047 9.11352539 C2.65916473 9.115746 3.400849 9.11796661 4.16500854 9.12025452 C6.09774915 9.11269473 6.09774915 9.11269473 8 8 C6.86500606 4.70851757 6.00716624 4.0040131 2.875 2.25 C1.92625 1.8375 0.9775 1.425 0 1 C0 0.67 0 0.34 0 0 Z " fill="#105782" transform="translate(100,37)"/>
<path d="M0 0 C5.94 0 11.88 0 18 0 C18 1.32 18 2.64 18 4 C15.69 4 13.38 4 11 4 C11 10.6 11 17.2 11 24 C9.35 24 7.7 24 6 24 C6 17.4 6 10.8 6 4 C4.02 4 2.04 4 0 4 C0 2.68 0 1.36 0 0 Z " fill="#181818" transform="translate(235,98)"/>
<path d="M0 0 C1.65 0 3.3 0 5 0 C5 6.6 5 13.2 5 20 C7.64 20 10.28 20 13 20 C13 21.32 13 22.64 13 24 C8.71 24 4.42 24 0 24 C0 16.08 0 8.16 0 0 Z " fill="#1A1A1A" transform="translate(275,98)"/>
<path d="M0 0 C10.69753587 0.72981394 21.34196822 1.84078429 32 3 C31.01 4.485 31.01 4.485 30 6 C26.375 6.1875 26.375 6.1875 23 6 C22.66574265 8.37374861 22.66574265 8.37374861 23 11 C24.94009522 12.70532323 24.94009522 12.70532323 27 14 C27 14.66 27 15.32 27 16 C22.91927658 15.44855089 22.08669204 15.08669204 19 12 C16.69 13.98 14.38 15.96 12 18 C13.03153759 13.87384964 14.28404014 12.1540179 17 9 C15.27773504 5.75150023 15.27773504 5.75150023 12 5 C12 4.34 12 3.68 12 3 C10.948125 2.855625 9.89625 2.71125 8.8125 2.5625 C5.84539451 2.12473034 2.93205634 1.62195134 0 1 C0 0.67 0 0.34 0 0 Z " fill="#196B9E" transform="translate(194,42)"/>
<path d="M0 0 C15.54416265 4.0830289 28.57686272 11.41634137 42 20 C41.01 20.495 41.01 20.495 40 21 C38.34619141 20.38256836 38.34619141 20.38256836 36.3515625 19.33984375 C35.60237549 18.96077881 34.85318848 18.58171387 34.08129883 18.19116211 C32.86543091 17.57059937 32.86543091 17.57059937 31.625 16.9375 C21.72793017 12.03833061 11.64064908 8.85918389 1 6 C0.67 4.02 0.34 2.04 0 0 Z " fill="#226192" transform="translate(169,19)"/>
<path d="M0 0 C0.99 0 1.98 0 3 0 C3 0.66 3 1.32 3 2 C5.60375251 3.60230924 7.00706115 4 10.125 4 C11.07375 4 12.0225 4 13 4 C13.66 4.66 14.32 5.32 15 6 C6.01404305 8.42406618 -2.64942777 10.60378931 -12 11 C-12.33 10.01 -12.66 9.02 -13 8 C-11.68 7.67 -10.36 7.34 -9 7 C-9 6.34 -9 5.68 -9 5 C-5.7 4.34 -2.4 3.68 1 3 C0.67 2.01 0.34 1.02 0 0 Z " fill="#1C6C9D" transform="translate(75,22)"/>
<path d="M0 0 C0 0.99 0 1.98 0 3 C-1.0725 3.12375 -2.145 3.2475 -3.25 3.375 C-7.42519557 4.02287328 -7.42519557 4.02287328 -11 6 C-11.33 7.32 -11.66 8.64 -12 10 C-17.61 9.34 -23.22 8.68 -29 8 C-25.40849159 5.60566106 -21.89590706 4.90713864 -17.75 4 C-16.26525275 3.66832871 -14.78087211 3.33501169 -13.296875 3 C-12.57693359 2.83757813 -11.85699219 2.67515625 -11.11523438 2.5078125 C-9.08230263 2.01975871 -7.08350339 1.4651839 -5.078125 0.875 C-2 0 -2 0 0 0 Z " fill="#DDF3F9" transform="translate(66,34)"/>
<path d="M0 0 C24.9175209 -0.23680854 24.9175209 -0.23680854 32 1 C32.66 1.66 33.32 2.32 34 3 C28.6172086 4.75935918 22.91496901 3.7249395 17.36303711 3.33081055 C15.30967472 3.18730254 13.2557128 3.06090454 11.20117188 2.93554688 C9.91404297 2.84724609 8.62691406 2.75894531 7.30078125 2.66796875 C6.11653564 2.58828857 4.93229004 2.5086084 3.7121582 2.42651367 C2.817146 2.28576416 1.92213379 2.14501465 1 2 C0.67 1.34 0.34 0.68 0 0 Z " fill="#085483" transform="translate(134,39)"/>
<path d="M0 0 C0.495 1.485 0.495 1.485 1 3 C3.475 3.495 3.475 3.495 6 4 C2.71919734 5.07340989 0.62524574 4.86338595 -2.70703125 4.0703125 C-10.34066131 2.55958245 -17.94761639 2.78336282 -25.6875 2.875 C-27.1790304 2.88505708 -28.67056742 2.89417808 -30.16210938 2.90234375 C-33.77487974 2.92412456 -37.38739593 2.9585015 -41 3 C-40.67 2.34 -40.34 1.68 -40 1 C-35.58924441 0.8559378 -31.17843772 0.71358717 -26.76757812 0.57275391 C-25.27016749 0.52471037 -23.77277123 0.47621662 -22.27539062 0.42724609 C-20.11071427 0.35653333 -17.94598968 0.28749368 -15.78125 0.21875 C-14.48251953 0.17685547 -13.18378906 0.13496094 -11.84570312 0.09179688 C-7.89405817 -0.00252883 -3.95251813 -0.01537945 0 0 Z " fill="#E2F6FC" transform="translate(155,12)"/>
<path d="M0 0 C-0.61875 0.0825 -1.2375 0.165 -1.875 0.25 C-4.69860516 1.24656653 -4.71507901 2.35981564 -6 5 C-9.77105313 9.88876218 -13.94498962 14.43851541 -19 18 C-19.99 17.67 -20.98 17.34 -22 17 C-21.319375 16.505 -20.63875 16.01 -19.9375 15.5 C-15.28379831 11.53940281 -11.4598474 6.90591188 -7.75 2.0625 C-5.14834906 -1.00373146 -3.79794945 -1.26598315 0 0 Z " fill="#0A6DA2" transform="translate(268,54)"/>
<path d="M0 0 C0.33 0.99 0.66 1.98 1 3 C0.01 3.33 -0.98 3.66 -2 4 C-2.27585937 4.55171875 -2.55171875 5.1034375 -2.8359375 5.671875 C-4.51584939 9.03169878 -7.07141194 11.54086343 -9.625 14.25 C-10.140625 14.80429688 -10.65625 15.35859375 -11.1875 15.9296875 C-12.45425035 17.2902712 -13.72657815 18.64565837 -15 20 C-15.66 19.67 -16.32 19.34 -17 19 C-17 18.34 -17 17.68 -17 17 C-16.34 17 -15.68 17 -15 17 C-14.7421875 16.41734375 -14.484375 15.8346875 -14.21875 15.234375 C-12.90165983 12.8197097 -11.44911616 11.18259823 -9.5 9.25 C-8.8915625 8.63640625 -8.283125 8.0228125 -7.65625 7.390625 C-6 6 -6 6 -4 6 C-3.34 4.68 -2.68 3.36 -2 2 C-1.34 2 -0.68 2 0 2 C0 1.34 0 0.68 0 0 Z " fill="#0D6EA6" transform="translate(45,53)"/>
<path d="M0 0 C2.66410618 0.43919142 5.31205657 0.72193689 8 1 C8 1.33 8 1.66 8 2 C-1.39355936 2.14256667 -10.64072209 1.72492332 -20 1 C-19.67 0.34 -19.34 -0.32 -19 -1 C-11.96857439 -2.3787109 -6.73230573 -2.28898395 0 0 Z " fill="#D3EDF5" transform="translate(158,38)"/>
<path d="M0 0 C0 0.33 0 0.66 0 1 C-3.65310599 2.2743393 -7.19694537 3.2994373 -11 4 C-13.39914051 4.56450365 -15.65570833 5.21856944 -18 6 C-18.66 5.67 -19.32 5.34 -20 5 C-20 4.34 -20 3.68 -20 3 C-13.16914355 0.55833216 -7.2484945 -0.41640288 0 0 Z " fill="#115E8D" transform="translate(98,19)"/>
<path d="M0 0 C1.98 0.66 3.96 1.32 6 2 C5.01 3.485 5.01 3.485 4 5 C-9.86 4.01 -9.86 4.01 -24 3 C-24 2.67 -24 2.34 -24 2 C-20.93744039 1.9729509 -17.8751214 1.95313702 -14.8125 1.9375 C-13.94818359 1.92912109 -13.08386719 1.92074219 -12.19335938 1.91210938 C-7.99713231 1.89603188 -4.09063114 1.92440962 0 3 C0 2.01 0 1.02 0 0 Z " fill="#D2EAF5" transform="translate(208,39)"/>
<path d="M0 0 C0 0.33 0 0.66 0 1 C-3.07617188 1.29296875 -3.07617188 1.29296875 -6.15234375 1.5859375 C-6.76207031 1.72257813 -7.37179688 1.85921875 -8 2 C-8.33 2.66 -8.66 3.32 -9 4 C-11.72265625 4.4140625 -11.72265625 4.4140625 -15.0625 4.625 C-16.16722656 4.69976563 -17.27195313 4.77453125 -18.41015625 4.8515625 C-19.26480469 4.90054687 -20.11945313 4.94953125 -21 5 C-21.33 4.01 -21.66 3.02 -22 2 C-19.03 2.495 -19.03 2.495 -16 3 C-16 2.34 -16 1.68 -16 1 C-10.63904667 -0.12862175 -5.44693314 -0.09688221 0 0 Z " fill="#13689C" transform="translate(146,14)"/>
<path d="M0 0 C2.375 -0.125 2.375 -0.125 5 0 C5.66 0.66 6.32 1.32 7 2 C6.46428571 5.53571429 6.46428571 5.53571429 5 7 C3.33382885 7.04063832 1.66611905 7.042721 0 7 C0 4.69 0 2.38 0 0 Z " fill="#D3D3D3" transform="translate(178,102)"/>
<path d="M0 0 C2.375 -0.125 2.375 -0.125 5 0 C5.66 0.66 6.32 1.32 7 2 C6.46428571 5.53571429 6.46428571 5.53571429 5 7 C3.33382885 7.04063832 1.66611905 7.042721 0 7 C0 4.69 0 2.38 0 0 Z " fill="#D3D3D3" transform="translate(54,102)"/>
<path d="M0 0 C3.00617269 3.00617269 2.59585316 5.82381598 3 10 C1.02 10 -0.96 10 -3 10 C-2.49287967 6.28111761 -1.88391785 3.26545761 0 0 Z " fill="#BEBEBE" transform="translate(261,103)"/>
<path d="M0 0 C0.89203125 0.11085938 1.7840625 0.22171875 2.703125 0.3359375 C3.37859375 0.43132813 4.0540625 0.52671875 4.75 0.625 C3.76 2.11 3.76 2.11 2.75 3.625 C2.75 4.285 2.75 4.945 2.75 5.625 C2.09 6.285 1.43 6.945 0.75 7.625 C-1.375 7.25 -1.375 7.25 -3.25 6.625 C-2.92 5.635 -2.59 4.645 -2.25 3.625 C-4.56 2.965 -6.87 2.305 -9.25 1.625 C-5.9353333 -0.40407167 -3.8184021 -0.50242133 0 0 Z " fill="#186797" transform="translate(101.25,17.375)"/>
<path d="M0 0 C1.66611905 -0.042721 3.33382885 -0.04063832 5 0 C6 1 6 1 6.125 3.5 C6 6 6 6 5 7 C3.33382885 7.04063832 1.66611905 7.042721 0 7 C0 4.69 0 2.38 0 0 Z " fill="#E6E6E6" transform="translate(16,102)"/>
<path d="M0 0 C0 0.66 0 1.32 0 2 C0.61875 2.309375 1.2375 2.61875 1.875 2.9375 C3.25 3.625 4.625 4.3125 6 5 C6 5.66 6 6.32 6 7 C1.91927658 6.44855089 1.08669204 6.08669204 -2 3 C-4.31 4.98 -6.62 6.96 -9 9 C-7.9110265 4.644106 -5.20152539 0 0 0 Z " fill="#106FA5" transform="translate(215,51)"/>
<path d="M0 0 C-1 2 -1 2 -3.5625 3.0625 C-6.21710954 3.78648442 -8.48384723 4.21566751 -11.1875 4.5 C-15.06259711 4.72265676 -15.06259711 4.72265676 -18 7 C-18.66 6.01 -19.32 5.02 -20 4 C-17.79471728 3.32331051 -15.58561391 2.65906502 -13.375 2 C-12.14523438 1.62875 -10.91546875 1.2575 -9.6484375 0.875 C-6.26153174 0.06272281 -3.46145571 -0.17041013 0 0 Z " fill="#DDF2F7" transform="translate(102,25)"/>
<path d="M0 0 C3.3 0.99 6.6 1.98 10 3 C9.34 4.32 8.68 5.64 8 7 C5.69 6.67 3.38 6.34 1 6 C0.67 4.02 0.34 2.04 0 0 Z " fill="#1D6496" transform="translate(169,19)"/>
<path d="M0 0 C2 1 2 1 3.125 3.375 C4 6 4 6 4 9 C2.02 9 0.04 9 -2 9 C-1.125 2.25 -1.125 2.25 0 0 Z " fill="#D0D0D0" transform="translate(78,104)"/>
<path d="M0 0 C1.4540625 0.0309375 1.4540625 0.0309375 2.9375 0.0625 C2.9375 1.0525 2.9375 2.0425 2.9375 3.0625 C1.9475 3.3925 0.9575 3.7225 -0.0625 4.0625 C-0.0625 3.4025 -0.0625 2.7425 -0.0625 2.0625 C-0.7225 2.0625 -1.3825 2.0625 -2.0625 2.0625 C-2.0625 3.0525 -2.0625 4.0425 -2.0625 5.0625 C-8.21484375 4.4765625 -8.21484375 4.4765625 -10.0625 4.0625 C-10.3925 3.4025 -10.7225 2.7425 -11.0625 2.0625 C-9.928125 1.918125 -8.79375 1.77375 -7.625 1.625 C-3.97252634 1.04829363 -3.54680005 0.07238367 0 0 Z " fill="#03659D" transform="translate(96.0625,19.9375)"/>
<path d="M0 0 C0.66 0 1.32 0 2 0 C2.66 2.97 3.32 5.94 4 9 C2.02 9 0.04 9 -2 9 C-1.34 6.03 -0.68 3.06 0 0 Z " fill="#D2D2D2" transform="translate(129,104)"/>
<path d="M0 0 C1.66611905 -0.042721 3.33382885 -0.04063832 5 0 C6 1 6 1 6.0625 3.5625 C6.041875 4.366875 6.02125 5.17125 6 6 C4.02 6 2.04 6 0 6 C0 4.02 0 2.04 0 0 Z " fill="#E3E3E3" transform="translate(149,102)"/>
<path d="M0 0 C1.32 0.99 2.64 1.98 4 3 C3 6 3 6 1 7 C-0.54023996 7.06950541 -2.08334988 7.08452357 -3.625 7.0625 C-4.85089844 7.04896484 -4.85089844 7.04896484 -6.1015625 7.03515625 C-7.04128906 7.01775391 -7.04128906 7.01775391 -8 7 C-8 6.67 -8 6.34 -8 6 C-6.35 6 -4.7 6 -3 6 C-2.690625 5.38125 -2.38125 4.7625 -2.0625 4.125 C-1.375 2.75 -0.6875 1.375 0 0 Z " fill="#E1F5FA" transform="translate(105,40)"/>
<path d="M0 0 C-0.99 0.495 -0.99 0.495 -2 1 C-2.268125 1.66 -2.53625 2.32 -2.8125 3 C-4 5 -4 5 -6.625 5.75 C-7.800625 5.87375 -7.800625 5.87375 -9 6 C-9.33 5.01 -9.66 4.02 -10 3 C-8.68 2.67 -7.36 2.34 -6 2 C-6 1.34 -6 0.68 -6 0 C-3.50907189 -1.24546405 -2.58919267 -0.7767578 0 0 Z " fill="#04629B" transform="translate(72,27)"/>
<path d="M0 0 C0.515625 0.37125 1.03125 0.7425 1.5625 1.125 C-1.78689881 3.15058881 -4.30712551 3.34238987 -8.1875 3.25 C-9.17234375 3.23195313 -10.1571875 3.21390625 -11.171875 3.1953125 C-12.29335938 3.16050781 -12.29335938 3.16050781 -13.4375 3.125 C-4.36898576 -1.56835386 -4.36898576 -1.56835386 0 0 Z " fill="#1C6091" transform="translate(57.4375,28.875)"/>
<path d="M0 0 C5.59305858 1.39826464 9.71990921 4.24087492 14 8 C14.33 8.66 14.66 9.32 15 10 C9.25 8.375 9.25 8.375 7 5 C4.94074861 4.27617533 4.94074861 4.27617533 3 4 C3 3.34 3 2.68 3 2 C2.01 1.67 1.02 1.34 0 1 C0 0.67 0 0.34 0 0 Z " fill="#0F5182" transform="translate(286,60)"/>
<path d="M0 0 C2.31 0.33 4.62 0.66 7 1 C7.33 2.32 7.66 3.64 8 5 C5.03 4.67 2.06 4.34 -1 4 C-0.67 2.68 -0.34 1.36 0 0 Z " fill="#186399" transform="translate(160,17)"/>
<path d="M0 0 C0.66 0.33 1.32 0.66 2 1 C1.54625 1.7425 1.0925 2.485 0.625 3.25 C-0.68640796 5.46930578 -1.88280803 7.67967822 -3 10 C-6 6.25 -6 6.25 -6 4 C-4.36368108 2.95107762 -2.69514137 1.95093297 -1 1 C-0.67 0.67 -0.34 0.34 0 0 Z " fill="#0C5C88" transform="translate(206,64)"/>
<path d="M0 0 C0.66 0.33 1.32 0.66 2 1 C0.02 1.99 0.02 1.99 -2 3 C-2 3.99 -2 4.98 -2 6 C-2.66 6 -3.32 6 -4 6 C-4 6.66 -4 7.32 -4 8 C-4.66 8 -5.32 8 -6 8 C-6.33 8.66 -6.66 9.32 -7 10 C-7 6 -7 6 -5.46875 4.296875 C-4.8190625 3.78640625 -4.169375 3.2759375 -3.5 2.75 C-2.8503125 2.22921875 -2.200625 1.7084375 -1.53125 1.171875 C-0.77328125 0.59179688 -0.77328125 0.59179688 0 0 Z " fill="#DAF2F7" transform="translate(60,52)"/>
<path d="M0 0 C3.34373475 0.55728913 6.03312999 1.35173889 9 3 C8.67 3.66 8.34 4.32 8 5 C6.35 4.67 4.7 4.34 3 4 C3 3.34 3 2.68 3 2 C2.01 2 1.02 2 0 2 C0 1.34 0 0.68 0 0 Z " fill="#08628C" transform="translate(294,68)"/>
<path d="M0 0 C-0.99 1.485 -0.99 1.485 -2 3 C-5.625 3.1875 -5.625 3.1875 -9 3 C-9 3.66 -9 4.32 -9 5 C-9.66 5 -10.32 5 -11 5 C-10.67 3.68 -10.34 2.36 -10 1 C-6.61981469 -0.04005702 -3.5219721 -0.08004482 0 0 Z " fill="#1F719B" transform="translate(226,45)"/>
<path d="M0 0 C0.99 0 1.98 0 3 0 C3.66 0.99 4.32 1.98 5 3 C5.99 3.33 6.98 3.66 8 4 C8.33 5.98 8.66 7.96 9 10 C8.34 10 7.68 10 7 10 C5.61558 8.03501678 4.28796166 6.02951535 3 4 C2.01133494 2.65824027 1.0161846 1.32103998 0 0 Z " fill="#0F517E" transform="translate(83,53)"/>
<path d="M0 0 C1.98 0.66 3.96 1.32 6 2 C5.01 3.485 5.01 3.485 4 5 C1.375 5.1875 1.375 5.1875 -1 5 C-1.33 4.34 -1.66 3.68 -2 3 C-1.34 3 -0.68 3 0 3 C0 2.01 0 1.02 0 0 Z " fill="#C4E2EA" transform="translate(208,39)"/>
<path d="M0 0 C3.21852831 0.63065757 5.50801069 1.78020695 8.25 3.5625 C8.95640625 4.01753906 9.6628125 4.47257812 10.390625 4.94140625 C11.18726563 5.46541016 11.18726563 5.46541016 12 6 C11.01 6.495 11.01 6.495 10 7 C7.6171875 6.00390625 7.6171875 6.00390625 4.875 4.5625 C3.96492187 4.08941406 3.05484375 3.61632813 2.1171875 3.12890625 C1.41851562 2.75636719 0.71984375 2.38382813 0 2 C0 1.34 0 0.68 0 0 Z " fill="#2F5879" transform="translate(199,33)"/>
<path d="M0 0 C0.66 0 1.32 0 2 0 C2 0.66 2 1.32 2 2 C2.99 2.33 3.98 2.66 5 3 C1.12315913 4.19287411 -1.91621923 5 -6 5 C-6 4.34 -6 3.68 -6 3 C-3 2 -3 2 0 3 C0 2.01 0 1.02 0 0 Z " fill="#08567E" transform="translate(94,22)"/>
<path d="M0 0 C0.66 0.33 1.32 0.66 2 1 C2 1.66 2 2.32 2 3 C3.65 3.33 5.3 3.66 7 4 C3.46905698 5.20220203 0.87101018 4.79532349 -2.75 4.0625 C-3.73484375 3.86785156 -4.7196875 3.67320313 -5.734375 3.47265625 C-6.48203125 3.31667969 -7.2296875 3.16070312 -8 3 C-8 2.67 -8 2.34 -8 2 C-6.865625 1.855625 -5.73125 1.71125 -4.5625 1.5625 C-1.19222799 1.38828522 -1.19222799 1.38828522 0 0 Z " fill="#CDECF6" transform="translate(154,12)"/>
<path d="M0 0 C5.75 1.75 5.75 1.75 8 4 C3.82412255 5.39195915 1.86525224 3.82323219 -2 2 C-1.34 1.34 -0.68 0.68 0 0 Z " fill="#1C527E" transform="translate(192,29)"/>
<path d="M0 0 C-6.4 3.07692308 -6.4 3.07692308 -9.4375 2.6875 C-9.953125 2.460625 -10.46875 2.23375 -11 2 C-7.75267347 -1.24732653 -4.25451414 -1.41817138 0 0 Z " fill="#095283" transform="translate(81,29)"/>
<path d="M0 0 C-2.55068845 2.35448165 -3.71017358 2.98327924 -7.25 3.1875 C-8.1575 3.125625 -9.065 3.06375 -10 3 C-4.375 -1.3125 -4.375 -1.3125 0 0 Z " fill="#02619A" transform="translate(112,18)"/>
<path d="M0 0 C3.96 0 7.92 0 12 0 C12 0.33 12 0.66 12 1 C10.02 1 8.04 1 6 1 C6 1.66 6 2.32 6 3 C3.03 2.505 3.03 2.505 0 2 C0 1.34 0 0.68 0 0 Z " fill="#034E82" transform="translate(124,14)"/>
<path d="M0 0 C0.6875 1.8125 0.6875 1.8125 1 4 C-0.375 5.75 -0.375 5.75 -2 7 C-2.33 7 -2.66 7 -3 7 C-3 5.02 -3 3.04 -3 1 C-2.01 0.67 -1.02 0.34 0 0 Z " fill="#121212" transform="translate(258,105)"/>
<path d="M0 0 C2.31 0.66 4.62 1.32 7 2 C4.42786866 3.61949011 3.32330841 4.04408751 0.25 3.625 C-0.4925 3.41875 -1.235 3.2125 -2 3 C-1.34 2.01 -0.68 1.02 0 0 Z " fill="#056996" transform="translate(55,31)"/>
<path d="M0 0 C4.28324091 2.51407619 6.64531705 4.12314139 8 9 C7.01 8.34 6.02 7.68 5 7 C5 6.34 5 5.68 5 5 C4.360625 4.731875 3.72125 4.46375 3.0625 4.1875 C1 3 1 3 0 0 Z " fill="#D6F5FA" transform="translate(228,61)"/>
<path d="M0 0 C2.64 0 5.28 0 8 0 C7.01 0.33 6.02 0.66 5 1 C5 1.66 5 2.32 5 3 C3.35 3 1.7 3 0 3 C0 2.01 0 1.02 0 0 Z " fill="#156391" transform="translate(238,48)"/>
<path d="M0 0 C1.41623216 -0.05447047 2.83308191 -0.09300508 4.25 -0.125 C5.03890625 -0.14820313 5.8278125 -0.17140625 6.640625 -0.1953125 C9.20731941 0.0171622 10.7916067 0.71345895 13 2 C10.69 2.33 8.38 2.66 6 3 C6 2.34 6 1.68 6 1 C4.02 1 2.04 1 0 1 C0 0.67 0 0.34 0 0 Z " fill="#115884" transform="translate(207,44)"/>
<path d="M0 0 C-1.75 2.0625 -1.75 2.0625 -4 4 C-6.25 3.75 -6.25 3.75 -8 3 C-8 2.34 -8 1.68 -8 1 C-5.29120665 -0.35439668 -2.99066732 -0.06501451 0 0 Z " fill="#0B5683" transform="translate(86,21)"/>
<path d="M0 0 C0.99 0.33 1.98 0.66 3 1 C3 1.99 3 2.98 3 4 C3.99 4.33 4.98 4.66 6 5 C5.01 6.485 5.01 6.485 4 8 C2.35 5.69 0.7 3.38 -1 1 C-0.67 0.67 -0.34 0.34 0 0 Z " fill="#D3F1FA" transform="translate(299,65)"/>
<path d="M0 0 C2.50037734 2.17424117 3.43628586 3.73045798 4 7 C2.0625 6.25 2.0625 6.25 0 5 C-0.8125 2.9375 -0.8125 2.9375 -1 1 C-0.67 0.67 -0.34 0.34 0 0 Z " fill="#DEF1F7" transform="translate(87,58)"/>
<path d="M0 0 C-0.639375 0.103125 -1.27875 0.20625 -1.9375 0.3125 C-2.9584375 0.6528125 -2.9584375 0.6528125 -4 1 C-4.33 1.99 -4.66 2.98 -5 4 C-7.0625 5.1875 -7.0625 5.1875 -9 6 C-5.14285714 -1.71428571 -5.14285714 -1.71428571 0 0 Z " fill="#166E9C" transform="translate(268,54)"/>
<path d="M0 0 C0.99 0 1.98 0 3 0 C2.34 3.96 1.68 7.92 1 12 C0.67 12 0.34 12 0 12 C0 8.04 0 4.08 0 0 Z " fill="#266696" transform="translate(15,34)"/>
<path d="M0 0 C-0.33 0.99 -0.66 1.98 -1 3 C-3.97 3 -6.94 3 -10 3 C-4 0 -4 0 0 0 Z " fill="#C4E5F0" transform="translate(80,30)"/>
<path d="M0 0 C1.65 0.33 3.3 0.66 5 1 C5 1.66 5 2.32 5 3 C3.02 3.33 1.04 3.66 -1 4 C-0.67 2.68 -0.34 1.36 0 0 Z " fill="#0F548C" transform="translate(178,23)"/>
<path d="M0 0 C0.99 0 1.98 0 3 0 C3 1.98 3 3.96 3 6 C2.67 5.34 2.34 4.68 2 4 C1.01 4 0.02 4 -1 4 C-0.67 2.68 -0.34 1.36 0 0 Z " fill="#E3FBFC" transform="translate(10,56)"/>
<path d="M0 0 C0.99 0.33 1.98 0.66 3 1 C2.67 2.32 2.34 3.64 2 5 C0.68 4.67 -0.64 4.34 -2 4 C-1.34 2.68 -0.68 1.36 0 0 Z " fill="#EEF4F2" transform="translate(52,39)"/>
</svg>
